<svg width="72" height="72" viewBox="0 0 72 72" fill="none" xmlns="http://www.w3.org/2000/svg">
<path d="M17.3333 16.5415V55.3322H54.6667V16.5415H17.3333ZM17.3333 11H54.6667C56.0812 11 57.4377 11.5838 58.4379 12.6231C59.4381 13.6623 60 15.0718 60 16.5415V55.3322C60 56.8019 59.4381 58.2114 58.4379 59.2506C57.4377 60.2899 56.0812 60.8737 54.6667 60.8737H17.3333C15.9188 60.8737 14.5623 60.2899 13.5621 59.2506C12.5619 58.2114 12 56.8019 12 55.3322V16.5415C12 15.0718 12.5619 13.6623 13.5621 12.6231C14.5623 11.5838 15.9188 11 17.3333 11ZM26.6667 30.3953C27.7275 30.3953 28.7449 29.9574 29.4951 29.178C30.2452 28.3986 30.6667 27.3415 30.6667 26.2392C30.6667 25.1369 30.2452 24.0798 29.4951 23.3003C28.7449 22.5209 27.7275 22.083 26.6667 22.083C25.6058 22.083 24.5884 22.5209 23.8382 23.3003C23.0881 24.0798 22.6667 25.1369 22.6667 26.2392C22.6667 27.3415 23.0881 28.3986 23.8382 29.178C24.5884 29.9574 25.6058 30.3953 26.6667 30.3953ZM22.6667 41.4784L28 35.9368L33.3333 41.4784L41.3333 33.1661L49.3333 41.4784V49.7907H22.6667V41.4784Z" fill="#1D1D1D"/>
<path d="M26.6667 30.3953C27.7276 30.3953 28.745 29.9574 29.4951 29.178C30.2453 28.3986 30.6667 27.3414 30.6667 26.2391C30.6667 25.1369 30.2453 24.0797 29.4951 23.3003C28.745 22.5209 27.7276 22.083 26.6667 22.083C25.6058 22.083 24.5884 22.5209 23.8383 23.3003C23.0881 24.0797 22.6667 25.1369 22.6667 26.2391C22.6667 27.3414 23.0881 28.3986 23.8383 29.178C24.5884 29.9574 25.6058 30.3953 26.6667 30.3953ZM22.6667 41.4783L28 35.9368L33.3334 41.4783L41.3334 33.1661L49.3334 41.4783V49.7906H22.6667V41.4783Z" fill="#FCBE60"/>
</svg>
